<svg width="181" height="48" viewBox="0 0 181 48" fill="none" xmlns="http://www.w3.org/2000/svg">
<g clip-path="url(#clip0_2_85)">
<path d="M46.0678 24.9436L43.0738 41.1538C42.966 41.7191 42.6958 42.2437 42.2941 42.6675C41.8924 43.0913 41.3755 43.3974 40.8024 43.5506L25.719 47.6755C25.1362 47.8341 24.5194 47.8341 23.9366 47.6755L8.85321 43.5506C8.2801 43.3974 7.76316 43.0913 7.36148 42.6675C6.9598 42.2437 6.68959 41.7191 6.58174 41.1538L3.58777 24.9436H46.0678Z" fill="#FF4444"/>
<path d="M24.8278 30.1929V47.7949C24.5265 47.7953 24.2265 47.7552 23.9366 47.6759L8.85321 43.551C8.2801 43.3978 7.76316 43.0917 7.36148 42.6679C6.9598 42.2441 6.68959 41.7195 6.58174 41.1543L3.58777 24.9436H13.8174L24.8278 30.1929Z" fill="#FF4444"/>
<path d="M49.4276 18.1554L48.6924 24.2688C48.6373 24.6994 48.4418 25.1018 48.1343 25.4178C47.8269 25.7339 47.4233 25.9471 46.9821 26.0267L25.2445 30.1146C24.9691 30.1659 24.6861 30.1659 24.4106 30.1146L2.67305 26.0267C2.23186 25.9471 1.82832 25.7339 1.52085 25.4178C1.21338 25.1018 1.01793 24.6994 0.962814 24.2688L0.227583 18.1554C0.190066 17.8382 0.231542 17.5171 0.348551 17.2186C0.46556 16.9201 0.654709 16.653 0.900218 16.4396C1.19694 16.1795 1.56293 16.0047 1.95691 15.935L24.4297 11.9147C24.6925 11.8686 24.9617 11.8686 25.2244 11.9147L47.6983 15.935C48.0923 16.0047 48.4582 16.1795 48.755 16.4396C49.0005 16.653 49.1896 16.9201 49.3066 17.2186C49.4236 17.5171 49.4651 17.8382 49.4276 18.1554Z" fill="#FF4444"/>
<path d="M48.755 16.4399L25.2106 20.5002C24.9573 20.5443 24.6979 20.5443 24.4446 20.5002L0.900208 16.4399C1.19693 16.1799 1.56292 16.0051 1.9569 15.9354L24.4297 11.9151C24.6925 11.869 24.9616 11.869 25.2244 11.9151L47.6983 15.9354C48.0922 16.0051 48.4582 16.1799 48.755 16.4399Z" fill="#FF4444"/>
<path d="M23.8539 15.6767L33.0246 19.1526C33.0246 19.1526 34.2471 29.5588 31.7748 46.0189C31.7748 46.0189 34.8802 46.0175 37.7649 44.3809C37.7649 44.3809 40.7718 31.6524 40.795 17.8126L32.3245 14.7161L25.3279 14.2775L23.8539 15.6767Z" fill="#32C60D"/>
<path d="M25.7076 15.6766L14.4787 18.7816C14.4787 18.7816 14.9986 35.5625 17.4742 45.908C17.4742 45.908 14.3286 46.0394 11.0304 44.1459C11.0304 44.1459 7.08374 27.2009 6.4389 17.3952C6.4389 17.3952 9.50163 16.1256 14.8097 15.2481C20.1178 14.3705 27.1681 13.6723 25.7076 15.6766ZM26.5267 16.0767C26.5267 16.0767 41.9931 18.8157 46.2622 8.92344C50.5313 -0.96885 32.1816 -6.07457 26.5267 13.8696V16.0767Z" fill="#32C60D"/>
<path d="M27.1638 14.8304V14.8294C27.1638 14.8284 27.1648 14.8284 27.1648 14.8274C27.2136 14.6479 29.8638 5.02696 36.2072 3.55219C38.2686 3.07324 40.0542 3.89576 40.887 5.28746H40.8881C42.6439 8.22163 40.1762 13.6838 27.1638 14.8304Z" fill="#32C60D"/>
<path d="M27.1638 14.8304V14.8294C27.1638 14.8284 27.1648 14.8284 27.1648 14.8273C33.7448 6.03302 38.4543 4.98796 40.887 5.28742H40.8881C42.6439 8.22159 40.1762 13.6838 27.1638 14.8304Z" fill="#22AA00"/>
<path d="M24.4945 16.0767C24.4945 16.0767 9.02807 18.8157 4.75896 8.92344C0.489841 -0.96885 18.8396 -6.07458 24.4945 13.8696V16.0767Z" fill="#32C60D"/>
<path d="M23.8579 14.8304C10.8454 13.6838 8.3777 8.22163 10.1346 5.28746C10.9675 3.89576 12.753 3.07324 14.8144 3.55219C21.1673 5.03004 23.8165 14.6776 23.8568 14.8284V14.8294C23.8571 14.8294 23.8574 14.8295 23.8576 14.8297C23.8578 14.8299 23.8579 14.8302 23.8579 14.8304Z" fill="#32C60D"/>
<path d="M23.8579 14.8304C10.8454 13.6838 8.3777 8.22158 10.1346 5.28741C12.5684 4.98897 17.2769 6.03403 23.8568 14.8283V14.8294C23.8571 14.8294 23.8574 14.8295 23.8576 14.8297C23.8578 14.8299 23.8579 14.8301 23.8579 14.8304Z" fill="#22AA00"/>
<path d="M23.1609 10.1079C23.1609 10.1079 25.5673 8.67848 27.8421 10.1499C27.8421 10.1499 30.563 17.6723 24.9738 17.6723C18.0355 17.6723 23.1609 10.1079 23.1609 10.1079Z" fill="#22AA00"/>
<path d="M47.7367 15.7333L41.1766 14.5601C43.6454 13.2781 45.4153 11.4187 46.4582 9.00211C47.2558 7.1534 47.3256 5.3569 46.6598 3.80675C46.0473 2.38048 44.8284 1.23871 43.2278 0.591773C40.8331 -0.37596 37.9257 -0.148897 35.251 1.21502C33.0778 2.32335 30.0262 4.72115 27.7458 9.84954C25.8484 8.76766 23.899 9.51992 23.2643 9.82267C20.9799 4.70095 17.9259 2.30982 15.7522 1.20609C13.0798 -0.151051 10.176 -0.373806 7.7859 0.59485C6.18685 1.2426 4.97016 2.38448 4.35906 3.81013C3.69492 5.35947 3.76494 7.15484 4.56276 9.00211C5.55527 11.3018 7.21267 13.1002 9.50674 14.3761L1.91795 15.7334C1.34019 15.8338 0.823093 16.1417 0.470423 16.5953C0.117752 17.0489 -0.044392 17.6147 0.0165305 18.1791L0.751868 24.2926C0.811167 24.7668 1.02561 25.2103 1.36394 25.5585C1.70227 25.9066 2.14679 26.1412 2.6327 26.228L3.6442 26.4181L6.37241 41.1901C6.48969 41.7923 6.77864 42.3508 7.20668 42.8028C7.63473 43.2547 8.18486 43.5821 8.79507 43.7481L10.9468 44.3359C13.8618 46.0007 16.6175 46.115 17.3171 46.115C17.3746 46.115 17.4164 46.1143 17.445 46.1136L23.8786 47.8728C24.499 48.0424 25.1558 48.0424 25.7763 47.8728L31.8046 46.224C32.1441 46.22 35.0671 46.1389 37.8468 44.572L40.8599 43.7481C41.4701 43.5821 42.0202 43.2547 42.4483 42.8027C42.8763 42.3507 43.1653 41.7921 43.2825 41.1899L46.0111 26.4182L47.0225 26.228C47.5084 26.1411 47.9529 25.9065 48.2912 25.5583C48.6294 25.2102 48.8439 24.7667 48.9032 24.2925L49.6384 18.179C49.6992 17.6145 49.537 17.0487 49.1843 16.5951C48.8316 16.1415 48.3144 15.8336 47.7367 15.7333ZM35.4494 1.57786C38.0117 0.271383 40.7872 0.0497566 43.0645 0.970313C45.7769 2.06645 47.7571 4.92626 46.0669 8.84417C44.8868 11.5791 42.8473 13.3362 40.5096 14.4465C40.4808 14.4478 40.4526 14.4548 40.4267 14.467C40.4008 14.4793 40.3777 14.4964 40.3589 14.5175C38.9688 15.1415 37.4998 15.5858 35.9897 15.8389C35.9614 15.8323 35.9321 15.8314 35.9034 15.8363C35.8748 15.8412 35.8475 15.8517 35.8232 15.8673C32.9382 16.3542 30.1321 16.256 28.2729 16.0849C28.4531 15.7029 28.5764 15.298 28.6391 14.8824C32.3054 14.4422 35.2912 13.6125 37.5136 12.414C39.424 11.3839 40.7311 10.0861 41.2945 8.66223C41.8711 7.20386 41.6188 5.67678 40.6194 4.57747C39.5564 3.40831 37.8884 2.95019 36.1573 3.35272C32.339 4.24026 29.8352 7.94289 28.3499 11.1179C28.2332 10.655 28.1211 10.3101 28.0698 10.1601C30.3078 5.03846 33.3151 2.6659 35.4494 1.57786ZM28.696 13.2071C31.3114 10.0039 33.8475 7.75613 36.2345 6.52678C36.2841 6.5012 36.3213 6.45759 36.3377 6.40554C36.3541 6.3535 36.3485 6.29728 36.322 6.24926C36.2955 6.20123 36.2504 6.16534 36.1966 6.14948C36.1427 6.13361 36.0846 6.13907 36.0349 6.16465C33.6802 7.37749 31.1932 9.54812 28.6376 12.6196C28.6008 12.3325 28.5541 12.0569 28.5031 11.7992C29.9141 8.60777 32.3985 4.64792 36.2566 3.75116C37.8318 3.38493 39.344 3.79475 40.3006 4.84781C41.1942 5.83072 41.4175 7.20181 40.8982 8.51537C40.339 9.92943 38.031 13.3183 28.6912 14.4628C28.726 14.0449 28.7276 13.6251 28.696 13.2071ZM23.3115 10.2608C23.6239 10.0926 25.7049 9.06333 27.6639 10.2823C27.8432 10.8145 29.0023 14.4786 27.6263 16.3517C27.0827 17.0919 26.1901 17.4672 24.974 17.4672C23.3583 17.4672 22.3033 17.0455 21.8382 16.2138C21.5747 15.7429 21.5118 15.1728 21.5698 14.5742V14.5719C21.5706 14.5676 21.5698 14.5634 21.5706 14.5591C21.7566 12.7043 23.1036 10.5789 23.3115 10.2608ZM32.2469 19.078L25.1727 20.2984C24.9442 20.3383 24.7101 20.3383 24.4816 20.2984L15.4185 18.7359L21.8823 16.9482C22.5218 17.5649 23.5567 17.8779 24.9736 17.8779C25.946 17.8779 26.7375 17.6558 27.3394 17.2183L32.2469 19.078ZM14.9371 6.60605C17.0851 7.74824 19.3579 9.71611 21.6934 12.4533C21.4477 13.0494 21.2738 13.6709 21.1752 14.3055C12.6663 13.0116 10.5898 9.77313 10.0911 8.43219C9.60849 7.1333 9.85272 5.78385 10.7445 4.82217C11.7027 3.78921 13.2059 3.38893 14.7645 3.75126C18.4367 4.60516 20.8606 8.26841 22.2583 11.2308C22.1222 11.491 21.9944 11.7552 21.8751 12.0229C19.5561 9.33378 17.2918 7.38959 15.1416 6.24628C15.0926 6.22293 15.0362 6.21873 14.9841 6.23456C14.932 6.25039 14.8882 6.28503 14.8619 6.33127C14.8355 6.37751 14.8287 6.43179 14.8427 6.48282C14.8567 6.53385 14.8905 6.57769 14.9371 6.60523V6.60605ZM4.95446 8.84417C3.26481 4.93006 5.24155 2.07065 7.94992 0.973082C10.2229 0.0520128 12.9948 0.26923 15.555 1.56915C17.6825 2.64949 20.6809 5.00482 22.9213 10.0893C22.8398 10.2144 22.689 10.4534 22.507 10.7742C21.0499 7.78301 18.5822 4.21728 14.8639 3.35262C13.1505 2.95439 11.4926 3.40144 10.4286 4.54855C9.43131 5.62396 9.15547 7.12756 9.69167 8.57075C10.7963 11.544 14.9624 13.7774 21.1335 14.7139C21.0919 15.213 21.167 15.7147 21.3532 16.1819C19.0583 16.2926 16.0344 16.2053 13.1477 15.4091C13.1071 15.3799 13.0569 15.3658 13.0065 15.3694C12.0685 15.1069 11.1581 14.7597 10.2875 14.3323C10.2554 14.2996 10.213 14.2779 10.167 14.2708C7.97125 13.1534 6.07429 11.4389 4.95446 8.84417ZM2.71323 25.8252C2.3159 25.7548 1.95224 25.5635 1.67525 25.2793C1.39826 24.9951 1.22243 24.6327 1.17338 24.2451L0.438148 18.1322C0.389309 17.6711 0.522674 17.2091 0.811484 16.8391C1.10029 16.4691 1.52318 16.2183 1.99529 16.1371L10.1001 14.6875C10.7739 15.0188 11.4717 15.3023 12.188 15.5359C8.83665 16.2554 6.78098 17.0384 6.41527 17.1829L4.67947 16.8833C4.65189 16.8783 4.62354 16.8786 4.59608 16.8842C4.56861 16.8898 4.54257 16.9006 4.51946 16.916C4.49635 16.9314 4.47663 16.9511 4.46144 16.9739C4.44626 16.9967 4.43591 17.0222 4.431 17.049C4.42608 17.0757 4.4267 17.1031 4.43282 17.1296C4.43894 17.156 4.45043 17.1811 4.46663 17.2033C4.48284 17.2254 4.50343 17.2442 4.52721 17.2587C4.551 17.2731 4.57751 17.2828 4.6052 17.2872L6.23905 17.569C6.42333 20.2477 6.85036 23.4551 7.37341 26.7012L2.71323 25.8252ZM8.9105 43.3532C8.37673 43.2085 7.8954 42.9225 7.52078 42.5274C7.14615 42.1324 6.89312 41.6441 6.79021 41.1175L4.09033 26.5021L7.4429 27.1323C8.66669 34.6162 10.3658 42.1891 10.7457 43.8547L8.9105 43.3532ZM11.2169 44.0138C10.9133 42.6958 7.30084 26.8675 6.66077 17.5295C7.22222 17.3131 9.47226 16.4923 13.0109 15.7845C15.3696 16.4402 17.7958 16.6293 19.8054 16.6293C20.4408 16.6293 21.0341 16.6103 21.5711 16.5814C21.5761 16.5887 21.5817 16.5956 21.5866 16.6027L14.4206 18.5848C14.4134 18.587 14.4063 18.5895 14.3994 18.5925C14.3971 18.5934 14.3949 18.594 14.3928 18.5949C14.3544 18.6114 14.3218 18.6386 14.2994 18.673C14.277 18.7073 14.2656 18.7474 14.2668 18.788C14.2693 18.8708 14.402 22.9711 14.8291 28.3355C14.8269 28.3582 14.8288 28.3811 14.8345 28.4032C15.2682 33.8372 16.003 40.5517 17.208 45.7021C15.0985 45.6196 13.0418 45.0401 11.2169 44.0138ZM24.6154 47.5826C24.4051 47.5685 24.197 47.5335 23.9942 47.4781L17.6535 45.7442C16.4522 40.6714 15.7147 34.0299 15.2762 28.6062L24.3702 30.316C24.4512 30.331 24.533 30.3419 24.6152 30.3486L24.6154 47.5826ZM24.4509 29.9132L15.242 28.1818C14.8819 23.6198 14.735 19.9941 14.6997 19.0282L24.4067 20.7017C24.6847 20.7502 24.9695 20.7502 25.2475 20.7017L32.8356 19.393C32.9165 20.2237 33.1829 23.4112 33.0883 28.4302L25.204 29.9132C24.9553 29.9598 24.6996 29.9598 24.4509 29.9132ZM31.5838 45.8581L25.6608 47.4785C25.458 47.5337 25.2499 47.5686 25.0398 47.5826V30.3485C25.122 30.3417 25.2039 30.3308 25.285 30.3159L33.0799 28.8493C32.9368 34.5429 32.4372 40.2229 31.5838 45.8581ZM37.5782 44.2491C35.263 45.5356 32.7952 45.7646 32.0207 45.8053C32.8772 40.1214 33.3739 34.3922 33.5081 28.6498C33.5162 28.6203 33.5173 28.5895 33.5115 28.5596C33.5115 28.5579 33.5104 28.5563 33.51 28.5546C33.628 22.615 33.242 19.1884 33.235 19.1296C33.235 19.1278 33.2339 19.1263 33.2336 19.1244C33.2333 19.1226 33.2336 19.1193 33.233 19.1167C33.2304 19.1027 33.2264 19.0889 33.2209 19.0757C33.2209 19.0747 33.2197 19.0739 33.2193 19.0728C33.2129 19.0585 33.2049 19.045 33.1953 19.0324C33.1926 19.029 33.1899 19.0258 33.187 19.0222C33.178 19.0116 33.1679 19.002 33.1569 18.9934C33.1545 18.9914 33.1523 18.9893 33.1497 18.9874C33.1356 18.9773 33.1202 18.969 33.104 18.9627C33.1032 18.9622 33.1024 18.9618 33.1016 18.9614L27.6961 16.9124C27.7963 16.8111 27.8887 16.703 27.9727 16.5888C27.9997 16.5522 28.0234 16.5137 28.0486 16.476C29.0992 16.5773 30.1544 16.6281 31.2102 16.6282C32.7881 16.6339 34.3636 16.5069 35.9188 16.2487L40.5821 17.9543C40.5401 30.965 37.8387 43.1069 37.5776 44.2491H37.5782ZM42.865 41.1177C42.7621 41.6443 42.509 42.1326 42.1344 42.5276C41.7597 42.9226 41.2784 43.2087 40.7446 43.3534L38.048 44.0909C39.2235 38.5955 40.0599 33.0373 40.5529 27.4458L45.5649 26.5029L42.865 41.1177ZM49.2166 18.1322L48.4814 24.2446C48.4324 24.6323 48.2565 24.9946 47.9795 25.2789C47.7025 25.5632 47.3388 25.7545 46.9414 25.8249L40.5894 27.0199C40.8334 24.1493 40.995 21.0921 41.0058 17.9846L43.2514 17.5971C43.2794 17.593 43.3063 17.5835 43.3304 17.5692C43.3545 17.5549 43.3755 17.5361 43.392 17.5139C43.4085 17.4916 43.4202 17.4664 43.4265 17.4397C43.4327 17.413 43.4334 17.3854 43.4284 17.3585C43.4235 17.3315 43.413 17.3058 43.3976 17.2828C43.3822 17.2599 43.3622 17.2401 43.3388 17.2247C43.3154 17.2093 43.289 17.1986 43.2612 17.1933C43.2335 17.1879 43.2049 17.1879 43.1772 17.1934L40.8149 17.6009L36.7083 16.099C36.9106 16.0568 37.1129 16.0126 37.3151 15.9642C38.4291 15.7036 39.5132 15.3354 40.551 14.8653L47.6593 16.137C48.1314 16.2182 48.5544 16.469 48.8432 16.839C49.132 17.2091 49.2654 17.671 49.2166 18.1322Z" fill="#3C3A3F"/>
</g>
<path d="M180.707 35.3848C180.246 35.6074 179.743 35.8066 179.197 35.9824C178.737 36.1348 178.203 36.2695 177.597 36.3867C176.991 36.5156 176.355 36.5801 175.688 36.5801C174.282 36.5801 173.263 36.2637 172.633 35.6309C172.003 34.998 171.687 33.9668 171.687 32.5371V20.584H169.305V19.4062L171.851 18.2461L173.524 14.4316H175.161V18.791H180.416V20.584H175.161V30.6387C175.161 31.3535 175.221 31.9629 175.342 32.4668C175.476 32.959 175.664 33.3633 175.906 33.6797C176.161 33.9844 176.47 34.207 176.834 34.3477C177.209 34.4883 177.646 34.5586 178.143 34.5586C178.506 34.5586 178.84 34.5293 179.143 34.4707C179.458 34.4121 179.731 34.3418 179.961 34.2598C180.228 34.166 180.476 34.0605 180.707 33.9434V35.3848Z" fill="#FF4444"/>
<path d="M169.534 11.7773C169.534 12.1406 169.455 12.4453 169.297 12.6914C169.152 12.9258 168.976 13.1191 168.77 13.2715C168.576 13.4121 168.382 13.5176 168.188 13.5879C168.006 13.6582 167.879 13.6992 167.806 13.7109C167.782 13.6875 167.679 13.6172 167.497 13.5C167.327 13.3711 167.115 13.2246 166.861 13.0605C166.618 12.8848 166.351 12.7031 166.06 12.5156C165.782 12.3281 165.521 12.1523 165.279 11.9883C165.036 11.8125 164.83 11.6719 164.66 11.5664C164.491 11.4492 164.4 11.3848 164.387 11.373C164.121 11.5137 163.854 11.7129 163.587 11.9707C163.333 12.2285 163.096 12.5742 162.878 13.0078C162.672 13.4414 162.502 13.9688 162.369 14.5898C162.248 15.1992 162.187 15.9258 162.187 16.7695V19.0723H166.806V20.918H162.187V33.8379C162.187 34.0605 162.26 34.248 162.405 34.4004C162.563 34.541 162.751 34.6172 162.969 34.6289L165.169 34.7344V36.1406H156.114V34.7344L157.95 34.6289C158.168 34.6055 158.35 34.5234 158.496 34.3828C158.653 34.2422 158.732 34.0605 158.732 33.8379V20.918H156.35V19.6523L158.732 19.002C158.732 18.4043 158.75 17.8711 158.787 17.4023C158.835 16.9219 158.908 16.4766 159.005 16.0664C159.114 15.6445 159.247 15.2402 159.405 14.8535C159.563 14.4551 159.757 14.0391 159.987 13.6055C160.351 12.9258 160.769 12.3398 161.242 11.8477C161.727 11.3438 162.242 10.9277 162.787 10.5996C163.345 10.2715 163.921 10.0254 164.515 9.86133C165.121 9.69727 165.727 9.61523 166.333 9.61523C166.854 9.61523 167.315 9.67383 167.715 9.79102C168.115 9.9082 168.449 10.0664 168.715 10.2656C168.994 10.4648 169.2 10.6934 169.334 10.9512C169.467 11.209 169.534 11.4844 169.534 11.7773Z" fill="#FF4444"/>
<path d="M150.723 12.8496C150.723 13.1543 150.662 13.4473 150.541 13.7285C150.432 13.998 150.275 14.2324 150.068 14.4316C149.862 14.6309 149.62 14.7891 149.341 14.9062C149.074 15.0234 148.783 15.082 148.468 15.082C148.153 15.082 147.85 15.0234 147.559 14.9062C147.28 14.7891 147.038 14.6309 146.832 14.4316C146.626 14.2324 146.462 13.998 146.341 13.7285C146.219 13.4473 146.159 13.1543 146.159 12.8496C146.159 12.5449 146.219 12.2578 146.341 11.9883C146.462 11.7188 146.626 11.4844 146.832 11.2852C147.038 11.0859 147.28 10.9336 147.559 10.8281C147.85 10.7109 148.153 10.6523 148.468 10.6523C148.783 10.6523 149.074 10.7109 149.341 10.8281C149.62 10.9336 149.862 11.0859 150.068 11.2852C150.275 11.4844 150.432 11.7188 150.541 11.9883C150.662 12.2578 150.723 12.5449 150.723 12.8496ZM143.886 36.1406V34.7344L145.704 34.6289C145.935 34.6055 146.122 34.5234 146.268 34.3828C146.413 34.2422 146.486 34.0605 146.486 33.8379V20.9883H143.922V19.7227L148.468 18.3516H149.941V33.8379C149.941 34.0605 150.014 34.2422 150.159 34.3828C150.317 34.5234 150.505 34.6055 150.723 34.6289L152.632 34.7344V36.1406H143.886Z" fill="#FF4444"/>
<path d="M138.659 26.209C138.392 26.2324 138.192 26.3203 138.059 26.4727C137.938 26.6133 137.877 26.7773 137.877 26.9648V35.2793C137.125 35.5488 136.325 35.7891 135.477 36C134.749 36.1875 133.913 36.3516 132.967 36.4922C132.034 36.6445 131.064 36.7207 130.058 36.7207C128.676 36.7207 127.391 36.5625 126.203 36.2461C125.027 35.9297 123.954 35.4844 122.984 34.9102C122.026 34.3359 121.178 33.6562 120.438 32.8711C119.699 32.0742 119.074 31.207 118.565 30.2695C118.068 29.332 117.692 28.3359 117.438 27.2812C117.183 26.2148 117.056 25.125 117.056 24.0117C117.056 22.125 117.365 20.4082 117.983 18.8613C118.602 17.3027 119.493 15.9727 120.657 14.8711C121.82 13.7695 123.233 12.9199 124.893 12.3223C126.566 11.7129 128.445 11.4082 130.531 11.4082C131.161 11.4082 131.767 11.4434 132.349 11.5137C132.943 11.5723 133.513 11.6543 134.058 11.7598C134.604 11.8535 135.137 11.9648 135.659 12.0938L137.222 12.4805L137.841 12.6387V18.457H135.604L135.004 15.2227C134.968 15.0117 134.877 14.8359 134.731 14.6953C134.586 14.543 134.428 14.4316 134.258 14.3613C134.21 14.3496 134.137 14.3203 134.04 14.2734C133.846 14.1914 133.622 14.1035 133.367 14.0098C133.113 13.916 132.828 13.8281 132.513 13.7461C132.21 13.6523 131.876 13.5762 131.513 13.5176C131.161 13.459 130.785 13.4297 130.385 13.4297C129.039 13.4297 127.809 13.6582 126.694 14.1152C125.578 14.5723 124.621 15.2402 123.821 16.1191C123.02 16.998 122.396 18.0879 121.948 19.3887C121.511 20.6777 121.293 22.1602 121.293 23.8359C121.293 25.5586 121.517 27.0938 121.966 28.4414C122.414 29.7891 123.051 30.9258 123.875 31.8516C124.712 32.7773 125.718 33.4863 126.894 33.9785C128.07 34.459 129.385 34.6992 130.84 34.6992C131.252 34.6992 131.646 34.6699 132.022 34.6113C132.397 34.5527 132.731 34.4941 133.022 34.4355C133.313 34.3652 133.555 34.3008 133.749 34.2422C133.943 34.1836 134.064 34.1543 134.113 34.1543V26.9648C134.113 26.7773 134.046 26.6133 133.913 26.4727C133.792 26.3203 133.598 26.2324 133.331 26.209L130.84 26.0332V24.4688H140.55V26.0332L138.659 26.209Z" fill="#FF4444"/>
<path d="M112.156 20.4082L105.01 37.248C104.889 37.541 104.719 37.9336 104.501 38.4258C104.283 38.918 104.022 39.4395 103.719 39.9902C103.428 40.5527 103.101 41.1035 102.737 41.6426C102.385 42.1816 102.016 42.6387 101.628 43.0137C101.179 43.4473 100.682 43.7812 100.137 44.0156C99.6032 44.2617 99.0213 44.3848 98.391 44.3848C97.9545 44.3848 97.5666 44.3262 97.2272 44.209C96.8877 44.1035 96.6028 43.957 96.3725 43.7695C96.1422 43.582 95.9664 43.3594 95.8452 43.1016C95.7239 42.8555 95.6633 42.5977 95.6633 42.3281C95.6633 41.918 95.7542 41.5371 95.9361 41.1855C96.1301 40.8457 96.4392 40.5059 96.8635 40.166L100.355 41.7129C100.658 41.4199 100.967 41.0332 101.282 40.5527C101.597 40.084 101.894 39.5859 102.173 39.0586C102.452 38.5312 102.707 38.0039 102.937 37.4766C103.167 36.9609 103.349 36.5039 103.483 36.1055L97.1544 20.4082L95.0996 20.1973V18.791H103.337V20.1973L101.555 20.3027C101.385 20.3262 101.24 20.3906 101.119 20.4961C101.009 20.6016 100.955 20.7305 100.955 20.8828C100.955 20.9766 100.967 21.0469 100.991 21.0938L105.319 31.7109L109.738 21.0938C109.774 21.0234 109.792 20.9473 109.792 20.8652C109.792 20.7246 109.738 20.6016 109.629 20.4961C109.532 20.3789 109.399 20.3145 109.229 20.3027L107.465 20.1973V18.791H114.102V20.1973L112.156 20.4082Z" fill="#FF4444"/>
<path d="M83.0718 36.1406V34.5938L85.0539 34.4531C85.3206 34.4297 85.5206 34.3359 85.654 34.1719C85.7994 34.0078 85.8722 33.8379 85.8722 33.6621V13.8164L77.3074 36.1406H75.4526L67.1787 14.1504V33.6621C67.1787 33.8379 67.2454 34.0078 67.3788 34.1719C67.5242 34.3359 67.7303 34.4297 67.997 34.4531L70.1246 34.5938V36.1406H62.069V34.5938L64.1965 34.4531C64.4632 34.4297 64.6572 34.3359 64.7784 34.1719C64.9118 34.0078 64.9785 33.8379 64.9785 33.6621V14.4668C64.9785 14.291 64.9118 14.1211 64.7784 13.957C64.6572 13.793 64.4632 13.6992 64.1965 13.6758L62.069 13.5352V11.9883H70.4155V12.9551L77.1619 30.6387L83.9083 13.0605V11.9883H92.4731V13.5352L90.4546 13.6758C90.1879 13.6992 89.9818 13.793 89.8363 13.957C89.703 14.1211 89.6363 14.291 89.6363 14.4668V33.6621C89.6363 33.8379 89.703 34.0078 89.8363 34.1719C89.9818 34.3359 90.1879 34.4297 90.4546 34.4531L92.4731 34.5938V36.1406H83.0718Z" fill="#FF4444"/>
<defs>
<clipPath id="clip0_2_85">
<rect width="49.6552" height="48" fill="white"/>
</clipPath>
</defs>
</svg>
